<svg version="1.1" xmlns="http://www.w3.org/2000/svg" xmlns:xlink="http://www.w3.org/1999/xlink" width="706" height="539.0961" viewBox="0,0,706,539.0961"><g transform="translate(33,89.54805)"><g data-paper-data="{&quot;isPaintingLayer&quot;:true}" fill-rule="nonzero" stroke="none" stroke-linecap="butt" stroke-linejoin="miter" stroke-miterlimit="10" stroke-dasharray="" stroke-dashoffset="0" style="mix-blend-mode: normal"><path d="M-33,449.54805v-539.0961h706v539.0961z" fill="#240000" stroke-width="NaN"/><path d="M175.92447,260.40623c0,9.1321 -7.35174,16.53512 -16.42057,16.53512c-9.06883,0 -16.42057,-7.40303 -16.42057,-16.53512c0,-9.1321 7.35174,-16.53512 16.42057,-16.53512c9.06883,0 16.42057,7.40303 16.42057,16.53512z" fill="#ff0000" stroke-width="0"/><path d="M306.81363,165.40623c0,13.55037 -10.90864,24.53513 -24.36514,24.53513c-13.4565,0 -24.36514,-10.98475 -24.36514,-24.53513c0,-13.55037 10.90864,-24.53512 24.36514,-24.53512c13.4565,0 24.36514,10.98475 24.36514,24.53512z" fill="#ff0000" stroke-width="0"/><path d="M383.81363,248.40623c0,13.55037 -10.90864,24.53512 -24.36514,24.53512c-13.4565,0 -24.36515,-10.98475 -24.36515,-24.53512c0,-13.55038 10.90865,-24.53512 24.36515,-24.53512c13.4565,0 24.36514,10.98475 24.36514,24.53512z" fill="#ff0000" stroke-width="0"/><path d="M455.47129,153.73806c0,7.75138 -6.2402,14.03512 -13.93789,14.03512c-7.69768,0 -13.93789,-6.28374 -13.93789,-14.03512c0,-7.75138 6.2402,-14.03512 13.93789,-14.03512c7.69768,0 13.93789,6.28374 13.93789,14.03512z" fill="#ff0000" stroke-width="0"/><path d="M220.81363,106.96553c0,8.8232 -7.10307,15.97583 -15.86515,15.97583c-8.76208,0 -15.86515,-7.15262 -15.86515,-15.97583c0,-8.8232 7.10307,-15.97582 15.86515,-15.97582c8.76208,0 15.86515,7.15262 15.86515,15.97582z" fill="#ff0000" stroke-width="0"/><path d="M531.68892,261.40623c0,18.52094 -14.91017,33.53513 -33.30279,33.53513c-18.39263,0 -33.30279,-15.01419 -33.30279,-33.53513c0,-18.52094 14.91017,-33.53512 33.30279,-33.53512c18.39263,0 33.30279,15.01418 33.30279,33.53512z" fill="#ff0000" stroke-width="0"/><path d="M429.59886,60.90623c0,22.11079 -17.80015,40.03513 -39.75776,40.03513c-21.95761,0 -39.75776,-17.92434 -39.75776,-40.03513c0,-22.11079 17.80015,-40.03512 39.75776,-40.03512c21.95761,0 39.75776,17.92433 39.75776,40.03512z" fill="#ff0000" stroke-width="0"/><path d="M99.81363,159.40623c0,13.55037 -10.90865,24.53512 -24.36515,24.53512c-13.4565,0 -24.36514,-10.98475 -24.36514,-24.53512c0,-13.55037 10.90864,-24.53512 24.36514,-24.53512c13.4565,0 24.36515,10.98475 24.36515,24.53512z" fill="#ff0000" stroke-width="0"/><path d="M589.81362,169.40623c0,13.55038 -10.90864,24.53512 -24.36514,24.53512c-13.4565,0 -24.36514,-10.98475 -24.36514,-24.53512c0,-13.55038 10.90864,-24.53512 24.36514,-24.53512c13.4565,0 24.36514,10.98475 24.36514,24.53512z" fill="#ff0000" stroke-width="0"/><path d="M-32,359.75v-25h703v25z" fill="#ff0000" stroke-width="0"/><path d="M-32,334.75v-25h704v25z" fill="#bf0000" stroke-width="0"/></g></g></svg>